# xmcd CD database file
#
# Track frame offsets:
#	150
#	29797
#	57679
#	81812
#	105048
#	125697
#	150881
#	174451
#	196091
#	221960
#
# Disc length: 3181 seconds
#
# Revision: 0
# Processed by: cddbd v1.5.2PL0 Copyright (c) Steve Scherf et al.
# Submitted via: CDex 1.51
#
DISCID=840c6b0a
DTITLE=Marilyn Scott - Standard Blue
DYEAR=2016
DGENRE=Jazz
TTITLE0=Willow Weep For Me
TTITLE1=Speak Low
TTITLE2=A Flower Is A Lovesome Thing
TTITLE3=Never Let Me Go
TTITLE4=Day Dream
TTITLE5=Blue Prelude
TTITLE6=I Wouldn't Change It
TTITLE7=East Of The Sun
TTITLE8=I've Got It Bad
TTITLE9=The Joint Is Jumping
EXTD=YEAR: 2016
EXTT0=
EXTT1=
EXTT2=
EXTT3=
EXTT4=
EXTT5=
EXTT6=
EXTT7=
EXTT8=
EXTT9=
PLAYORDER=
